<?xml version="1.0" encoding="UTF-8"?>
<svg width="20px" height="16px" viewBox="0 0 20 16" version="1.1" xmlns="http://www.w3.org/2000/svg" xmlns:xlink="http://www.w3.org/1999/xlink">
    <title>Rectangle</title>
    <g id="assets" stroke="none" stroke-width="1" fill="none" fill-rule="evenodd">
        <path d="M8,3.74409569 L8,13.6534854 C8,14.7580549 8.8954305,15.6534854 10,15.6534854 C10.3959196,15.6534854 10.7829317,15.5359758 11.1120116,15.3158422 L18.5188329,10.3611474 C19.4369272,9.74700036 19.6833252,8.50487331 19.0691782,7.58677898 C18.9235389,7.36906141 18.7365505,7.18207296 18.5188329,7.03643368 L11.1120116,2.08173884 C10.1939172,1.46759181 8.95179017,1.71398979 8.33764315,2.63208413 C8.11750956,2.96116396 8,3.34817608 8,3.74409569 Z" id="Path-2" fill="#FFFFFF"></path>
        <path d="M0,3.74409569 L0,13.6534854 C-8.82075901e-16,14.7580549 0.8954305,15.6534854 2,15.6534854 C2.3959196,15.6534854 2.78293172,15.5359758 3.11201156,15.3158422 L10.5188329,10.3611474 C11.4369272,9.74700036 11.6833252,8.50487331 11.0691782,7.58677898 C10.9235389,7.36906141 10.7365505,7.18207296 10.5188329,7.03643368 L3.11201156,2.08173884 C2.19391722,1.46759181 0.951790174,1.71398979 0.33764315,2.63208413 C0.117509562,2.96116396 -9.82885568e-16,3.34817608 0,3.74409569 Z" id="Path-2" fill="#FFFFFF" opacity="0.5"></path>
    </g>
</svg>